<?xml version="1.0" encoding="UTF-8"?>
<svg version="1.1" xmlns="http://www.w3.org/2000/svg" width="500" height="500">
<path d="M0 0 C151.8 0 303.6 0 460 0 C460 91.08 460 182.16 460 276 C308.2 276 156.4 276 0 276 C0 184.92 0 93.84 0 0 Z " fill="#00694D" transform="translate(20,112)"/>
<path d="M0 0 C18.00444751 14.73526085 30.56932185 36.95034312 33.02880859 60.22851562 C34.5243642 87.94238011 27.7578211 112.17675068 9.50732422 133.48388672 C-5.26097713 149.93585435 -26.86923433 161.27834294 -48.97119141 163.22851562 C-77.22468118 164.74694868 -101.55084319 157.36627054 -122.83447266 138.26367188 C-139.74932879 122.33920794 -150.31434103 99.5331423 -151.19384766 76.33007812 C-151.8271393 49.48882188 -143.54807476 26.01318396 -124.97119141 6.22851562 C-90.65585346 -27.82523624 -37.64221774 -29.583135 0 0 Z " fill="#F32A41" transform="translate(285.97119140625,178.771484375)"/>
</svg>
